HIERARCHY
ROOT Hips
{
	OFFSET 0.00000 0.00000 0.00000
	CHANNELS 6 Xposition Yposition Zposition Zrotation Yrotation Xrotation 
	JOINT LHipJoint
	{
		OFFSET 0 0 0
		CHANNELS 3 Zrotation Yrotation Xrotation
		JOINT LeftUpLeg
		{
			OFFSET 1.67711 -1.75950 0.70433
			CHANNELS 3 Zrotation Yrotation Xrotation
			JOINT LeftLeg
			{
				OFFSET 2.44937 -6.72958 0.00000
				CHANNELS 3 Zrotation Yrotation Xrotation
				JOINT LeftFoot
				{
					OFFSET 2.61292 -7.17894 0.00000
					CHANNELS 3 Zrotation Yrotation Xrotation
					JOINT LeftToeBase
					{
						OFFSET 0.17811 -0.48914 1.82515
						CHANNELS 3 Zrotation Yrotation Xrotation
						End Site
						{
							OFFSET -0.00112 -0.00292 0.95564
						}
					}
				}
			}
		}
	}
	JOINT RHipJoint
	{
		OFFSET 0 0 0
		CHANNELS 3 Zrotation Yrotation Xrotation
		JOINT RightUpLeg
		{
			OFFSET -1.61866 -1.75949 0.70433
			CHANNELS 3 Zrotation Yrotation Xrotation
			JOINT RightLeg
			{
				OFFSET -2.36243 -6.49072 0.00000
				CHANNELS 3 Zrotation Yrotation Xrotation
				JOINT RightFoot
				{
					OFFSET -2.64336 -7.26259 0.00000
					CHANNELS 3 Zrotation Yrotation Xrotation
					JOINT RightToeBase
					{
						OFFSET -0.18169 -0.49935 1.90192
						CHANNELS 3 Zrotation Yrotation Xrotation
						End Site
						{
							OFFSET 0.00039 0.00229 0.99264
						}
					}
				}
			}
		}
	}
	JOINT LowerBack
	{
		OFFSET 0 0 0
		CHANNELS 3 Zrotation Yrotation Xrotation
		JOINT Spine
		{
			OFFSET -0.01926 2.19655 -0.12599
			CHANNELS 3 Zrotation Yrotation Xrotation
			JOINT Spine1
			{
				OFFSET 0.01663 2.20532 -0.00079
				CHANNELS 3 Zrotation Yrotation Xrotation
				JOINT Neck
				{
					OFFSET 0 0 0
					CHANNELS 3 Zrotation Yrotation Xrotation
					JOINT Neck1
					{
						OFFSET 0.10604 1.75174 0.14226
						CHANNELS 3 Zrotation Yrotation Xrotation
						JOINT Head
						{
							OFFSET -0.09898 1.68516 -0.48414
							CHANNELS 3 Zrotation Yrotation Xrotation
							End Site
							{
								OFFSET -0.02896 1.78316 -0.18415
							}
						}
					}
				}
				JOINT LeftShoulder
				{
					OFFSET 0 0 0
					CHANNELS 3 Zrotation Yrotation Xrotation
					JOINT LeftArm
					{
						OFFSET 3.30655 1.16959 -0.30867
						CHANNELS 3 Zrotation Yrotation Xrotation
						JOINT LeftForeArm
						{
							OFFSET 5.35289 -0.00000 -0.00000
							CHANNELS 3 Zrotation Yrotation Xrotation
							JOINT LeftHand
							{
								OFFSET 3.27727 -0.00000 -0.00000
								CHANNELS 3 Zrotation Yrotation Xrotation
								JOINT LeftFingerBase
								{
									OFFSET 0 0 0
									CHANNELS 3 Zrotation Yrotation Xrotation
									JOINT LeftHandIndex1
									{
										OFFSET 0.54443 0.00002 0.00009
										CHANNELS 3 Zrotation Yrotation Xrotation
										End Site
										{
											OFFSET 0.43891 -0.00000 -0.00000
										}
									}
								}
								JOINT LThumb
								{
									OFFSET 0 0 0
									CHANNELS 3 Zrotation Yrotation Xrotation
									End Site
									{
										OFFSET 0.44564 0.00002 0.44570
									}
								}
							}
						}
					}
				}
				JOINT RightShoulder
				{
					OFFSET 0 0 0
					CHANNELS 3 Zrotation Yrotation Xrotation
					JOINT RightArm
					{
						OFFSET -3.27172 0.97864 -0.36131
						CHANNELS 3 Zrotation Yrotation Xrotation
						JOINT RightForeArm
						{
							OFFSET -5.52076 -0.00317 -0.00590
							CHANNELS 3 Zrotation Yrotation Xrotation
							JOINT RightHand
							{
								OFFSET -3.32364 -0.00000 -0.00000
								CHANNELS 3 Zrotation Yrotation Xrotation
								JOINT RightFingerBase
								{
									OFFSET 0 0 0
									CHANNELS 3 Zrotation Yrotation Xrotation
									JOINT RightHandIndex1
									{
										OFFSET -0.73223 -0.00000 -0.00000
										CHANNELS 3 Zrotation Yrotation Xrotation
										End Site
										{
											OFFSET -0.59035 -0.00000 -0.00000
										}
									}
								}
								JOINT RThumb
								{
									OFFSET 0 0 0
									CHANNELS 3 Zrotation Yrotation Xrotation
									End Site
									{
										OFFSET -0.59936 -0.00000 0.59936
									}
								}
							}
						}
					}
				}
			}
		}
	}
}
MOTION
Frames: 5
Frame Time: .0083333
-5.7489 19.4479 -24.4488 0 0 0 0 0 0 -21 0 0 0 0 0 0 0 0 0 0 0 0 0 0 21 0 0 0 0 0 0 0 0 0 0 0 0 0 0 0 0 0 0 0 0 0 0 -16 0 0 21 0 0 11 0 0 0 -8 0 0 0 0 0 0 0 0 0 0 0 0 0 0 0 0 0 0 0 0 8 0 0 0 0 0 0 0 0 0 0 0 0 0 0 0 0 0
-5.7489 19.4479 -24.4488 2.0433 -7.2201 3.0455 0.0000 0.0000 0.0000 -22.1035 -3.6675 -18.5401 14.2996 19.2024 73.1175 1.4142 -2.1641 23.3384 1.4199 -7.5358 -21.3127 0.0000 0.0000 0.0000 16.7514 10.5029 -25.2664 -5.2258 -13.6336 41.7892 -1.3087 0.4510 -21.4950 -0.5689 4.8304 -13.4255 20.4167 -6.8713 -8.5434 -9.8377 -11.4635 6.4330 -24.0038 -4.5358 5.7046 11.4892 21.4634 -2.5138 -11.3087 30.0278 13.5688 -2.1533 14.3552 8.0266 0.0000 0.0000 0.0000 -76.5132 17.7416 -4.7649 16.6340 -26.3728 -3.9234 -0.0000 0.0000 -8.0384 22.9693 31.3507 12.4355 -7.1250 0.0000 -0.0000 -10.7721 63.1583 -4.7761 0.0000 0.0000 0.0000 98.9534 5.5351 45.7321 -13.0340 21.3370 -2.4656 0.0000 0.0000 2.8248 -17.5876 18.5809 -5.7675 7.1250 -0.0000 -0.0000 6.8772 -10.6638 5.5269
-5.8002 19.4408 -24.3517 1.4416 -6.9029 3.3252 0.0000 0.0000 0.0000 -21.2020 -3.6012 -20.5980 15.0976 19.4138 75.5305 1.1985 -3.5999 22.2634 1.3615 -7.3856 -20.8628 0.0000 0.0000 0.0000 17.6014 10.7935 -24.8611 -5.2117 -13.6183 41.7295 -1.3518 -0.0664 -22.0200 -0.5748 4.8550 -13.4953 21.2820 -6.7477 -8.7963 -9.7176 -11.4690 6.3405 -24.3938 -4.5170 5.6202 11.3992 21.3681 -2.1391 -11.0439 29.8455 13.3214 -2.1643 14.3154 7.8048 -0.0000 0.0000 0.0000 -76.5438 18.2059 -4.4020 16.4562 -26.1353 -3.8447 -0.0000 0.0000 -8.0728 20.4084 31.9258 11.1310 -7.1250 0.0000 -0.0000 -14.1715 63.0510 -6.2752 -0.0000 0.0000 0.0000 99.2833 5.7411 45.8211 -13.0078 21.2987 -2.4561 0.0000 0.0000 3.7803 -17.3914 17.9901 -5.5255 7.1250 -0.0000 -0.0000 6.9799 -11.2944 5.5199
-5.8474 19.4569 -24.2439 1.2053 -6.6211 3.4937 0.0000 0.0000 0.0000 -20.7505 -3.3208 -22.5211 15.7712 19.5657 77.5493 0.8395 -5.4978 20.1509 1.7270 -8.2726 -23.5451 0.0000 0.0000 0.0000 18.0647 10.4872 -24.4172 -5.1526 -13.5536 41.4777 -1.3840 -0.0059 -22.2610 -0.5765 4.8623 -13.5162 21.8242 -6.6255 -9.0359 -9.7128 -11.4267 6.2411 -24.7507 -4.4837 5.5800 11.3820 21.2843 -1.8582 -10.8257 29.6967 13.2034 -2.1695 14.2786 7.6649 0.0000 0.0000 0.0000 -76.5753 18.6976 -4.2047 16.3240 -25.9579 -3.7867 -0.0000 0.0000 -7.9267 18.2301 32.1434 9.9394 -7.1250 0.0000 -0.0000 -16.8160 62.6945 -7.3372 0.0000 0.0000 0.0000 99.6466 6.0212 46.2148 -12.9085 21.1529 -2.4202 0.0000 0.0000 4.0228 -17.7602 17.3347 -5.4515 7.1250 -0.0000 -0.0000 6.7101 -11.9276 5.2152
-5.9001 19.4733 -24.1443 1.1825 -6.2463 3.4230 0.0000 0.0000 0.0000 -20.5331 -3.0493 -24.2828 16.4206 19.6900 79.4822 0.8401 -6.7469 21.0366 1.8008 -8.4382 -24.0531 0.0000 0.0000 0.0000 18.3492 10.2783 -23.7322 -5.1127 -13.5096 41.3074 -1.4247 -0.0719 -22.6094 -0.5175 4.6106 -12.8013 22.0143 -6.6151 -9.0079 -9.7763 -11.4314 6.2126 -24.9391 -4.4964 5.4839 11.2862 21.2354 -1.6802 -10.5193 29.5859 13.1517 -2.1239 14.2540 7.5425 0.0000 0.0000 0.0000 -76.4965 19.0011 -4.0326 16.0643 -25.6078 -3.6737 -0.0000 0.0000 -7.4042 16.4838 31.7848 8.8590 -7.1250 0.0000 -0.0000 -18.4577 61.9102 -7.7366 0.0000 0.0000 0.0000 99.9447 6.1242 46.7374 -12.9552 21.2215 -2.4370 0.0000 0.0000 4.0077 -17.9959 17.6797 -5.6342 7.1250 -0.0000 -0.0000 6.5690 -11.5447 5.1563
